<?xml version="1.0" encoding="utf-8"?>
<!-- Generator: Adobe Illustrator 21.0.0, SVG Export Plug-In . SVG Version: 6.00 Build 0)  -->
<svg version="1.1" id="图层_1" xmlns="http://www.w3.org/2000/svg" xmlns:xlink="http://www.w3.org/1999/xlink" x="0px" y="0px"
	 viewBox="0 0 3000 1024" style="enable-background:new 0 0 3000 1024;" xml:space="preserve">
<style type="text/css">
	.st0{fill:#ED7814;}
</style>
<g>
	<g>
		<path class="st0" d="M997.2,603.8C958.8,719.5,849.7,803,721.1,803c-123.8,0-229.4-77.3-271.5-186.2h283.1V407.2H449.7
			C491.7,298.3,597.4,221,721.1,221c123.3,0,228.6,76.7,271,184.9h49V271.6c0-115.8-93.8-209.6-209.6-209.6H387.7
			c-115.8,0-209.6,93.8-209.6,209.6v480.8c0,115.8,93.8,209.6,209.6,209.6h443.8c115.8,0,209.6-93.8,209.6-209.6V603.8h-12.3H997.2z
			"/>
		<g>
			<g>
				<path class="st0" d="M1814.2,517.7l18.9,10.5c8.5,4.7,12.7,14.9,9.7,24.2c-20,61.1-44.6,97.5-87,127.9c-39,28-90,44-141.9,44
					c-142.8,0-255.2-123-235.6-268.8c14.9-111.4,110.7-198.4,223-202.7c75.8-2.9,144.6,28.3,190.5,86.8c11,14,17,24,30,48
					l-245.1,153.4c-12.1,7.6-28.1,3.7-35.3-8.6l-9.1-15.3c-7-11.9-3.3-27.2,8.3-34.5l178.2-112c-24-29-64-46-108.9-46
					c-85,0-150.9,69-150.9,156.9c0,93.9,73,170.9,161.9,170.9c61,0,116.9-32,145.9-84.9c8.1-14.2,13-23.9,17.9-38
					C1788.9,517.2,1802.9,511.5,1814.2,517.7z"/>
			</g>
			<path class="st0" d="M1881.5,280h88.9v-20.8h52.7V280h88.9v49h-88.9v26.6h83.6v49h-83.6v29.3c28-2.1,56.4-4.8,85.2-8v50.6
				c-25.9,2.8-54.3,5.7-85.2,8.5V528h-52.7v-39.9c-28.7,1.8-59.1,3.2-91,4.3v-51.1c29.8-0.4,60.1-1.4,91-3.2v-33.5h-85.2v-49h85.2
				V329h-88.9V280z M2067.3,532.3h50.6v20.2h117.6c41.2,4.6,63.2,31.9,66,82c-0.4,55.4-25.4,83-75.1,83h-69.2l0.5-45.2h64.9
				c18.5,0,27.7-12.8,27.7-38.3c0-24.1-13-36.2-38.9-36.2h-93.7v134.1h-50.6V597.8h-120.8v120.3h-52.7V552.5h173.5V532.3z
				 M2255.2,261.4c36.9,1.4,55.4,18.6,55.4,51.6c-0.7,19.2-6,39.2-16,60.1c16.7,22.4,26.1,41.9,28.2,58.6
				c0,56.4-24.3,84.6-72.9,84.6H2202V470h46.3c17.7-0.7,26.6-12.6,26.6-35.7c-6.7-22-17.6-43.1-32.5-63.3c5-8.9,9.6-26.4,13.8-52.7
				c0-7.1-4.4-11.5-13.3-13.3h-59.6v229.4h-49V261.4H2255.2z"/>
			<path class="st0" d="M2801.1,262.4v50c-38,2.1-88.2,3.9-150.6,5.3c3.5,18.5,6.4,41.5,8.5,69.2h149v52.7h-145.8
				c0.7,14.9,1.2,30.5,1.6,46.8c0,7.5,0,14.4,0,20.8h158.1v52.2h-158.6c-1.1,36.9-2.8,62.6-5.3,77.2c-6.7,55-42.6,84.5-107.5,88.4
				c-52.5,0-88.7-1.4-108.6-4.3V667c24.8,3.9,55.5,5.9,92.1,5.9c40.8-1.4,63.7-15.6,68.7-42.6c3.2-13.5,5.1-37.1,5.9-70.8h-244.3
				v-52.2h245.4c0-7.1,0-14,0-20.8c-0.7-17-1.6-32.6-2.7-46.8h-228.4V387h223.6c-2.5-27-5.3-49.7-8.5-68.1
				c-60.7,1.1-130.2,1.8-208.7,2.1v-50.6C2586.5,270.4,2725.2,267.8,2801.1,262.4z"/>
		</g>
	</g>
</g>
</svg>
